<svg xmlns="http://www.w3.org/2000/svg" xmlns:xlink="http://www.w3.org/1999/xlink" width="113" height="119" viewBox="0 0 113 119">
  <defs>
    <clipPath id="clip-Artboard_20">
      <rect width="113" height="119"/>
    </clipPath>
  </defs>
  <g id="Artboard_20" data-name="Artboard – 20" clip-path="url(#clip-Artboard_20)">
    <g id="Group_66" data-name="Group 66" transform="translate(-1266 -603)">
      <path id="Icon_simple-behance" data-name="Icon simple-behance" d="M13.183,6.754a16.945,16.945,0,0,1,3.648.357,8.206,8.206,0,0,1,2.822,1.159A5.341,5.341,0,0,1,21.478,10.4a7.594,7.594,0,0,1,.646,3.287,6.184,6.184,0,0,1-.963,3.534,6.961,6.961,0,0,1-2.854,2.318,6.7,6.7,0,0,1,3.842,2.6,7.8,7.8,0,0,1,1.264,4.484,7.855,7.855,0,0,1-.779,3.667,7.031,7.031,0,0,1-2.2,2.565,9.671,9.671,0,0,1-3.173,1.457,13.9,13.9,0,0,1-3.629.483H0V6.768H13.183Zm19.006,23.11a4.958,4.958,0,0,0,3.6,1.222,4.962,4.962,0,0,0,2.907-.849,3.5,3.5,0,0,0,1.482-1.786H45.1a9.251,9.251,0,0,1-3.61,5.226,10.424,10.424,0,0,1-5.853,1.577,11.646,11.646,0,0,1-4.317-.76,9.4,9.4,0,0,1-3.268-2.166A9.692,9.692,0,0,1,26,28.964a12.468,12.468,0,0,1-.709-4.313,11.556,11.556,0,0,1,.766-4.237,9.863,9.863,0,0,1,5.427-5.67A10.182,10.182,0,0,1,35.7,13.92a9.579,9.579,0,0,1,4.522.994,9.121,9.121,0,0,1,3.154,2.66,10.582,10.582,0,0,1,1.786,3.838,15.332,15.332,0,0,1,.4,4.522H30.952A5.759,5.759,0,0,0,32.3,29.859l-.152.057Zm-19.458.1a8,8,0,0,0,1.722-.177,4.406,4.406,0,0,0,1.45-.57,2.816,2.816,0,0,0,.988-1.108,3.9,3.9,0,0,0,.361-1.824A3.688,3.688,0,0,0,16.036,23.2a5.233,5.233,0,0,0-3.211-.912H6.157v7.7h6.575V29.96ZM38.587,19.224A4.182,4.182,0,0,0,35.438,18.1a4.712,4.712,0,0,0-2.216.452,4.094,4.094,0,0,0-1.406,1.121,3.956,3.956,0,0,0-.745,1.425,6.661,6.661,0,0,0-.257,1.349h9.049a5.428,5.428,0,0,0-1.292-3.211v.019Zm-26.2-1.169a4.425,4.425,0,0,0,2.708-.783A2.925,2.925,0,0,0,16.15,14.73a3.58,3.58,0,0,0-.342-1.608,2.777,2.777,0,0,0-.95-.973,4.023,4.023,0,0,0-1.368-.488,8.41,8.41,0,0,0-1.6-.141H6.138v6.537h6.252ZM29.677,8.634h11.34V11.4H29.677V8.63Z" transform="translate(1296.683 645.54)" fill="#fff"/>
    </g>
  </g>
</svg>
